<mxfile host="Electron" modified="2023-08-30T15:14:59.632Z" agent="Mozilla/5.0 (Macintosh; Intel Mac OS X 10_15_7) AppleWebKit/537.36 (KHTML, like Gecko) draw.io/21.6.8 Chrome/114.0.5735.289 Electron/25.5.0 Safari/537.36" etag="ped7RCiDdHy_wUIgoalh" version="21.6.8" type="device" pages="3">
  <diagram name="Page-1" id="16e2658f-23c8-b752-8be9-c03fbebb8bbe">
    <mxGraphModel dx="954" dy="674" grid="1" gridSize="10" guides="1" tooltips="1" connect="1" arrows="1" fold="1" page="1" pageScale="1" pageWidth="1100" pageHeight="850" background="none" math="0" shadow="0">
      <root>
        <mxCell id="0" />
        <mxCell id="1" parent="0" />
        <mxCell id="6d250d948d6a1778-7" style="edgeStyle=orthogonalEdgeStyle;rounded=0;html=1;exitX=1;exitY=0.5;exitPerimeter=0;entryX=1;entryY=0.5;entryPerimeter=0;labelBackgroundColor=none;startArrow=none;startFill=0;startSize=5;endArrow=none;endFill=0;endSize=5;jettySize=auto;orthogonalLoop=1;strokeWidth=1;fontFamily=Verdana;fontSize=12" parent="1" source="6d250d948d6a1778-1" target="6d250d948d6a1778-2" edge="1">
          <mxGeometry relative="1" as="geometry">
            <Array as="points">
              <mxPoint x="230" y="120" />
              <mxPoint x="400" y="120" />
            </Array>
          </mxGeometry>
        </mxCell>
        <mxCell id="6d250d948d6a1778-8" style="edgeStyle=orthogonalEdgeStyle;rounded=0;html=1;exitX=1;exitY=0.5;exitPerimeter=0;entryX=1;entryY=0.5;entryPerimeter=0;labelBackgroundColor=none;startArrow=none;startFill=0;startSize=5;endArrow=none;endFill=0;endSize=5;jettySize=auto;orthogonalLoop=1;strokeWidth=1;fontFamily=Verdana;fontSize=12" parent="1" source="6d250d948d6a1778-1" target="6d250d948d6a1778-3" edge="1">
          <mxGeometry relative="1" as="geometry">
            <Array as="points">
              <mxPoint x="230" y="120" />
              <mxPoint x="640" y="120" />
            </Array>
          </mxGeometry>
        </mxCell>
        <mxCell id="6d250d948d6a1778-1" value="" style="verticalLabelPosition=bottom;shadow=0;dashed=0;align=center;fillColor=#000000;html=1;verticalAlign=top;strokeWidth=1;shape=mxgraph.electrical.miscellaneous.monocell_battery;rounded=1;comic=0;labelBackgroundColor=none;fontFamily=Verdana;fontSize=12;rotation=-90;" parent="1" vertex="1">
          <mxGeometry x="180" y="290" width="100" height="60" as="geometry" />
        </mxCell>
        <mxCell id="6d250d948d6a1778-11" style="edgeStyle=orthogonalEdgeStyle;rounded=0;html=1;exitX=0;exitY=0.5;exitPerimeter=0;entryX=0;entryY=0.5;entryPerimeter=0;labelBackgroundColor=none;startArrow=none;startFill=0;startSize=5;endArrow=none;endFill=0;endSize=5;jettySize=auto;orthogonalLoop=1;strokeWidth=1;fontFamily=Verdana;fontSize=12" parent="1" source="6d250d948d6a1778-2" target="6d250d948d6a1778-6" edge="1">
          <mxGeometry relative="1" as="geometry" />
        </mxCell>
        <mxCell id="6d250d948d6a1778-12" style="edgeStyle=orthogonalEdgeStyle;rounded=0;html=1;exitX=0;exitY=0.5;exitPerimeter=0;entryX=1;entryY=0.5;entryPerimeter=0;labelBackgroundColor=none;startArrow=none;startFill=0;startSize=5;endArrow=none;endFill=0;endSize=5;jettySize=auto;orthogonalLoop=1;strokeWidth=1;fontFamily=Verdana;fontSize=12" parent="1" source="6d250d948d6a1778-2" target="6d250d948d6a1778-4" edge="1">
          <mxGeometry relative="1" as="geometry" />
        </mxCell>
        <mxCell id="6d250d948d6a1778-2" value="" style="verticalLabelPosition=bottom;shadow=0;dashed=0;align=center;html=1;verticalAlign=top;strokeWidth=1;shape=mxgraph.electrical.resistors.resistor_1;rounded=1;comic=0;labelBackgroundColor=none;fontFamily=Verdana;fontSize=12;rotation=-90;" parent="1" vertex="1">
          <mxGeometry x="350" y="200" width="100" height="20" as="geometry" />
        </mxCell>
        <mxCell id="6d250d948d6a1778-9" style="edgeStyle=orthogonalEdgeStyle;rounded=0;html=1;exitX=0;exitY=0.5;exitPerimeter=0;entryX=1;entryY=0.5;entryPerimeter=0;labelBackgroundColor=none;startArrow=none;startFill=0;startSize=5;endArrow=none;endFill=0;endSize=5;jettySize=auto;orthogonalLoop=1;strokeWidth=1;fontFamily=Verdana;fontSize=12" parent="1" source="6d250d948d6a1778-3" target="6d250d948d6a1778-5" edge="1">
          <mxGeometry relative="1" as="geometry" />
        </mxCell>
        <mxCell id="6d250d948d6a1778-3" value="" style="verticalLabelPosition=bottom;shadow=0;dashed=0;align=center;html=1;verticalAlign=top;strokeWidth=1;shape=mxgraph.electrical.resistors.resistor_1;rounded=1;comic=0;labelBackgroundColor=none;fontFamily=Verdana;fontSize=12;rotation=-90;" parent="1" vertex="1">
          <mxGeometry x="590" y="200" width="100" height="20" as="geometry" />
        </mxCell>
        <mxCell id="6d250d948d6a1778-13" style="edgeStyle=orthogonalEdgeStyle;rounded=0;html=1;exitX=0;exitY=0.5;exitPerimeter=0;entryX=0;entryY=0.5;entryPerimeter=0;labelBackgroundColor=none;startArrow=none;startFill=0;startSize=5;endArrow=none;endFill=0;endSize=5;jettySize=auto;orthogonalLoop=1;strokeWidth=1;fontFamily=Verdana;fontSize=12" parent="1" source="6d250d948d6a1778-4" target="6d250d948d6a1778-1" edge="1">
          <mxGeometry relative="1" as="geometry">
            <Array as="points">
              <mxPoint x="400" y="470" />
              <mxPoint x="230" y="470" />
            </Array>
          </mxGeometry>
        </mxCell>
        <mxCell id="6d250d948d6a1778-4" value="" style="verticalLabelPosition=bottom;shadow=0;dashed=0;align=center;html=1;verticalAlign=top;strokeWidth=1;shape=mxgraph.electrical.resistors.resistor_1;rounded=1;comic=0;labelBackgroundColor=none;fontFamily=Verdana;fontSize=12;rotation=-90;" parent="1" vertex="1">
          <mxGeometry x="350" y="370" width="100" height="20" as="geometry" />
        </mxCell>
        <mxCell id="6d250d948d6a1778-14" style="edgeStyle=orthogonalEdgeStyle;rounded=0;html=1;exitX=0;exitY=0.5;exitPerimeter=0;entryX=0;entryY=0.5;entryPerimeter=0;labelBackgroundColor=none;startArrow=none;startFill=0;startSize=5;endArrow=none;endFill=0;endSize=5;jettySize=auto;orthogonalLoop=1;strokeWidth=1;fontFamily=Verdana;fontSize=12" parent="1" source="6d250d948d6a1778-5" target="6d250d948d6a1778-1" edge="1">
          <mxGeometry relative="1" as="geometry">
            <Array as="points">
              <mxPoint x="640" y="470" />
              <mxPoint x="230" y="470" />
            </Array>
          </mxGeometry>
        </mxCell>
        <mxCell id="6d250d948d6a1778-5" value="" style="verticalLabelPosition=bottom;shadow=0;dashed=0;align=center;html=1;verticalAlign=top;strokeWidth=1;shape=mxgraph.electrical.resistors.resistor_1;rounded=1;comic=0;labelBackgroundColor=none;fontFamily=Verdana;fontSize=12;rotation=-90;" parent="1" vertex="1">
          <mxGeometry x="590" y="370" width="100" height="20" as="geometry" />
        </mxCell>
        <mxCell id="6d250d948d6a1778-10" style="edgeStyle=orthogonalEdgeStyle;rounded=0;html=1;exitX=1;exitY=0.5;exitPerimeter=0;labelBackgroundColor=none;startArrow=none;startFill=0;startSize=5;endArrow=none;endFill=0;endSize=5;jettySize=auto;orthogonalLoop=1;strokeWidth=1;fontFamily=Verdana;fontSize=12" parent="1" source="6d250d948d6a1778-6" edge="1">
          <mxGeometry relative="1" as="geometry">
            <mxPoint x="640" y="330" as="targetPoint" />
          </mxGeometry>
        </mxCell>
        <mxCell id="6d250d948d6a1778-6" value="" style="verticalLabelPosition=bottom;shadow=0;dashed=0;align=center;fillColor=#ffffff;html=1;verticalAlign=top;strokeWidth=1;shape=mxgraph.electrical.resistors.resistor_1;rounded=1;comic=0;labelBackgroundColor=none;fontFamily=Verdana;fontSize=12;fontColor=#000000;rotation=0;" parent="1" vertex="1">
          <mxGeometry x="470" y="290" width="100" height="20" as="geometry" />
        </mxCell>
        <mxCell id="6d250d948d6a1778-16" value="R1" style="text;html=1;resizable=0;points=[];autosize=1;align=left;verticalAlign=top;spacingTop=-4;fontSize=16;fontFamily=Verdana" parent="1" vertex="1">
          <mxGeometry x="362" y="200" width="40" height="20" as="geometry" />
        </mxCell>
        <mxCell id="6d250d948d6a1778-17" value="R2" style="text;html=1;resizable=0;points=[];autosize=1;align=left;verticalAlign=top;spacingTop=-4;fontSize=16;fontFamily=Verdana" parent="1" vertex="1">
          <mxGeometry x="362" y="370" width="40" height="20" as="geometry" />
        </mxCell>
        <mxCell id="6d250d948d6a1778-18" value="R5" style="text;html=1;resizable=0;points=[];autosize=1;align=left;verticalAlign=top;spacingTop=-4;fontSize=16;fontFamily=Verdana" parent="1" vertex="1">
          <mxGeometry x="500" y="260" width="40" height="20" as="geometry" />
        </mxCell>
        <mxCell id="6d250d948d6a1778-19" value="R3" style="text;html=1;resizable=0;points=[];autosize=1;align=left;verticalAlign=top;spacingTop=-4;fontSize=16;fontFamily=Verdana" parent="1" vertex="1">
          <mxGeometry x="650" y="200" width="40" height="20" as="geometry" />
        </mxCell>
        <mxCell id="6d250d948d6a1778-20" value="R4" style="text;html=1;resizable=0;points=[];autosize=1;align=left;verticalAlign=top;spacingTop=-4;fontSize=16;fontFamily=Verdana" parent="1" vertex="1">
          <mxGeometry x="650" y="370" width="40" height="20" as="geometry" />
        </mxCell>
        <mxCell id="6d250d948d6a1778-21" value="I" style="endArrow=classic;html=1;labelBackgroundColor=none;strokeWidth=1;fontFamily=Verdana;fontSize=16" parent="1" edge="1">
          <mxGeometry x="-0.1429" y="20" width="50" height="50" relative="1" as="geometry">
            <mxPoint x="230" y="100" as="sourcePoint" />
            <mxPoint x="300" y="100" as="targetPoint" />
            <mxPoint as="offset" />
          </mxGeometry>
        </mxCell>
        <mxCell id="6d250d948d6a1778-22" value="U" style="endArrow=classic;html=1;labelBackgroundColor=none;strokeWidth=1;fontFamily=Verdana;fontSize=16" parent="1" edge="1">
          <mxGeometry x="-0.1429" y="20" width="50" height="50" relative="1" as="geometry">
            <mxPoint x="190" y="360" as="sourcePoint" />
            <mxPoint x="190" y="280" as="targetPoint" />
            <mxPoint as="offset" />
          </mxGeometry>
        </mxCell>
        <mxCell id="6d250d948d6a1778-23" value="I5" style="endArrow=classic;html=1;labelBackgroundColor=none;strokeWidth=1;fontFamily=Verdana;fontSize=16" parent="1" edge="1">
          <mxGeometry x="-0.1429" y="20" width="50" height="50" relative="1" as="geometry">
            <mxPoint x="410" y="280" as="sourcePoint" />
            <mxPoint x="480" y="280" as="targetPoint" />
            <mxPoint as="offset" />
          </mxGeometry>
        </mxCell>
        <mxCell id="6d250d948d6a1778-24" value="Is1" style="verticalLabelPosition=middle;html=1;verticalAlign=middle;strokeWidth=1;shape=mxgraph.lean_mapping.physical_pull;rounded=1;shadow=0;comic=0;labelBackgroundColor=none;fillColor=#000000;fontFamily=Verdana;fontSize=16;align=center;flipH=1;labelPosition=center;" parent="1" vertex="1">
          <mxGeometry x="280" y="270" width="80" height="80" as="geometry" />
        </mxCell>
        <mxCell id="6d250d948d6a1778-25" value="Is2" style="verticalLabelPosition=middle;html=1;verticalAlign=middle;strokeWidth=1;shape=mxgraph.lean_mapping.physical_pull;rounded=1;shadow=0;comic=0;labelBackgroundColor=none;fillColor=#000000;fontFamily=Verdana;fontSize=16;align=center;flipH=1;labelPosition=center;" parent="1" vertex="1">
          <mxGeometry x="480" y="150" width="80" height="80" as="geometry" />
        </mxCell>
        <mxCell id="6d250d948d6a1778-26" value="Is3" style="verticalLabelPosition=middle;html=1;verticalAlign=middle;strokeWidth=1;shape=mxgraph.lean_mapping.physical_pull;rounded=1;shadow=0;comic=0;labelBackgroundColor=none;fillColor=#000000;fontFamily=Verdana;fontSize=16;align=center;flipH=1;labelPosition=center;" parent="1" vertex="1">
          <mxGeometry x="480" y="350" width="80" height="80" as="geometry" />
        </mxCell>
      </root>
    </mxGraphModel>
  </diagram>
  <diagram id="ERiNTT48xR3btgcEQMKq" name="Page-2">
    <mxGraphModel dx="954" dy="674" grid="1" gridSize="10" guides="1" tooltips="1" connect="1" arrows="1" fold="1" page="1" pageScale="1" pageWidth="827" pageHeight="1169" math="1" shadow="0">
      <root>
        <mxCell id="0" />
        <mxCell id="1" parent="0" />
        <mxCell id="i333OXiYysNbMp9Z2vId-5" style="edgeStyle=orthogonalEdgeStyle;rounded=0;orthogonalLoop=1;jettySize=auto;html=1;exitX=0;exitY=0.5;exitDx=0;exitDy=0;exitPerimeter=0;entryX=0.5;entryY=0;entryDx=0;entryDy=0;entryPerimeter=0;endArrow=none;endFill=0;strokeWidth=3;" edge="1" parent="1" source="i333OXiYysNbMp9Z2vId-1">
          <mxGeometry relative="1" as="geometry">
            <mxPoint x="290" y="380" as="targetPoint" />
          </mxGeometry>
        </mxCell>
        <mxCell id="i333OXiYysNbMp9Z2vId-7" style="edgeStyle=orthogonalEdgeStyle;rounded=0;orthogonalLoop=1;jettySize=auto;html=1;exitX=1;exitY=0.5;exitDx=0;exitDy=0;exitPerimeter=0;entryX=0;entryY=0.5;entryDx=0;entryDy=0;entryPerimeter=0;endArrow=none;endFill=0;strokeWidth=3;" edge="1" parent="1" source="i333OXiYysNbMp9Z2vId-1" target="i333OXiYysNbMp9Z2vId-2">
          <mxGeometry relative="1" as="geometry" />
        </mxCell>
        <mxCell id="i333OXiYysNbMp9Z2vId-1" value="" style="pointerEvents=1;verticalLabelPosition=bottom;shadow=0;dashed=0;align=center;html=1;verticalAlign=top;shape=mxgraph.electrical.resistors.resistor_2;strokeWidth=3;" vertex="1" parent="1">
          <mxGeometry x="360" y="320" width="100" height="20" as="geometry" />
        </mxCell>
        <mxCell id="i333OXiYysNbMp9Z2vId-9" style="edgeStyle=orthogonalEdgeStyle;rounded=0;orthogonalLoop=1;jettySize=auto;html=1;exitX=1;exitY=0.5;exitDx=0;exitDy=0;exitPerimeter=0;entryX=0.58;entryY=0.935;entryDx=0;entryDy=0;entryPerimeter=0;strokeWidth=3;endArrow=none;endFill=0;" edge="1" parent="1" source="i333OXiYysNbMp9Z2vId-2" target="i333OXiYysNbMp9Z2vId-8">
          <mxGeometry relative="1" as="geometry">
            <Array as="points">
              <mxPoint x="510" y="470" />
              <mxPoint x="291" y="470" />
            </Array>
          </mxGeometry>
        </mxCell>
        <mxCell id="i333OXiYysNbMp9Z2vId-2" value="" style="pointerEvents=1;verticalLabelPosition=bottom;shadow=0;dashed=0;align=center;html=1;verticalAlign=top;shape=mxgraph.electrical.resistors.resistor_2;rotation=90;strokeWidth=3;" vertex="1" parent="1">
          <mxGeometry x="460" y="390" width="100" height="20" as="geometry" />
        </mxCell>
        <mxCell id="i333OXiYysNbMp9Z2vId-8" value="" style="pointerEvents=1;verticalLabelPosition=bottom;shadow=0;dashed=0;align=center;html=1;verticalAlign=top;shape=mxgraph.electrical.signal_sources.dc_source_1;strokeWidth=3;" vertex="1" parent="1">
          <mxGeometry x="250" y="370" width="70" height="75" as="geometry" />
        </mxCell>
        <mxCell id="i333OXiYysNbMp9Z2vId-10" value="&lt;font style=&quot;font-size: 16px;&quot;&gt;`R_1`&lt;/font&gt;" style="text;html=1;align=center;verticalAlign=middle;resizable=0;points=[];autosize=1;strokeColor=none;fillColor=none;" vertex="1" parent="1">
          <mxGeometry x="370" y="268" width="60" height="30" as="geometry" />
        </mxCell>
        <mxCell id="i333OXiYysNbMp9Z2vId-11" value="&lt;font style=&quot;font-size: 16px;&quot;&gt;`R_2`&lt;/font&gt;" style="text;html=1;align=center;verticalAlign=middle;resizable=0;points=[];autosize=1;strokeColor=none;fillColor=none;" vertex="1" parent="1">
          <mxGeometry x="520" y="385" width="60" height="30" as="geometry" />
        </mxCell>
        <mxCell id="i333OXiYysNbMp9Z2vId-12" value="&lt;font style=&quot;font-size: 16px;&quot;&gt;`V_s`&lt;/font&gt;" style="text;html=1;align=center;verticalAlign=middle;resizable=0;points=[];autosize=1;strokeColor=none;fillColor=none;" vertex="1" parent="1">
          <mxGeometry x="190" y="388" width="60" height="30" as="geometry" />
        </mxCell>
        <mxCell id="i333OXiYysNbMp9Z2vId-16" value="" style="endArrow=classic;html=1;rounded=0;strokeWidth=4;fillColor=#e51400;strokeColor=#B20000;" edge="1" parent="1">
          <mxGeometry width="50" height="50" relative="1" as="geometry">
            <mxPoint x="240" y="280" as="sourcePoint" />
            <mxPoint x="280" y="320" as="targetPoint" />
          </mxGeometry>
        </mxCell>
        <mxCell id="i333OXiYysNbMp9Z2vId-17" value="&lt;span style=&quot;font-size: 18px;&quot;&gt;Node &#39;1&#39;&lt;/span&gt;" style="text;html=1;align=center;verticalAlign=middle;resizable=0;points=[];autosize=1;strokeColor=none;fillColor=none;" vertex="1" parent="1">
          <mxGeometry x="165" y="243" width="90" height="40" as="geometry" />
        </mxCell>
        <mxCell id="i333OXiYysNbMp9Z2vId-18" value="" style="endArrow=classic;html=1;rounded=0;strokeWidth=4;fillColor=#e51400;strokeColor=#B20000;" edge="1" parent="1">
          <mxGeometry width="50" height="50" relative="1" as="geometry">
            <mxPoint x="580" y="270" as="sourcePoint" />
            <mxPoint x="520" y="320" as="targetPoint" />
          </mxGeometry>
        </mxCell>
        <mxCell id="i333OXiYysNbMp9Z2vId-19" value="&lt;span style=&quot;font-size: 18px;&quot;&gt;Node &#39;2&#39;&lt;/span&gt;" style="text;html=1;align=center;verticalAlign=middle;resizable=0;points=[];autosize=1;strokeColor=none;fillColor=none;" vertex="1" parent="1">
          <mxGeometry x="580" y="240" width="90" height="40" as="geometry" />
        </mxCell>
        <mxCell id="i333OXiYysNbMp9Z2vId-20" value="" style="endArrow=classic;html=1;rounded=0;strokeWidth=4;fillColor=#e51400;strokeColor=#B20000;" edge="1" parent="1">
          <mxGeometry width="50" height="50" relative="1" as="geometry">
            <mxPoint x="460" y="500" as="sourcePoint" />
            <mxPoint x="390" y="480" as="targetPoint" />
          </mxGeometry>
        </mxCell>
        <mxCell id="i333OXiYysNbMp9Z2vId-21" value="&lt;span style=&quot;font-size: 18px;&quot;&gt;Node &#39;GND&#39;&lt;/span&gt;" style="text;html=1;align=center;verticalAlign=middle;resizable=0;points=[];autosize=1;strokeColor=none;fillColor=none;" vertex="1" parent="1">
          <mxGeometry x="450" y="480" width="120" height="40" as="geometry" />
        </mxCell>
        <mxCell id="i333OXiYysNbMp9Z2vId-22" value="" style="endArrow=classic;html=1;rounded=0;strokeWidth=3;" edge="1" parent="1">
          <mxGeometry width="50" height="50" relative="1" as="geometry">
            <mxPoint x="330" y="370" as="sourcePoint" />
            <mxPoint x="330" y="430" as="targetPoint" />
          </mxGeometry>
        </mxCell>
        <mxCell id="i333OXiYysNbMp9Z2vId-23" value="&lt;font style=&quot;font-size: 16px;&quot;&gt;`I_s`&lt;/font&gt;" style="text;html=1;align=center;verticalAlign=middle;resizable=0;points=[];autosize=1;strokeColor=none;fillColor=none;" vertex="1" parent="1">
          <mxGeometry x="320" y="380" width="60" height="30" as="geometry" />
        </mxCell>
      </root>
    </mxGraphModel>
  </diagram>
  <diagram id="erhX5MUEMNHfQjiT6QMp" name="Page-3">
    <mxGraphModel dx="954" dy="674" grid="1" gridSize="10" guides="1" tooltips="1" connect="1" arrows="1" fold="1" page="1" pageScale="1" pageWidth="827" pageHeight="1169" math="1" shadow="0">
      <root>
        <mxCell id="0" />
        <mxCell id="1" parent="0" />
        <mxCell id="0bEOkKY82hUJe_hc6dHf-17" style="edgeStyle=orthogonalEdgeStyle;rounded=0;orthogonalLoop=1;jettySize=auto;html=1;exitX=1;exitY=0.5;exitDx=0;exitDy=0;exitPerimeter=0;entryX=0;entryY=0.5;entryDx=0;entryDy=0;endArrow=none;endFill=0;strokeWidth=3;" edge="1" parent="1" source="0bEOkKY82hUJe_hc6dHf-1" target="0bEOkKY82hUJe_hc6dHf-11">
          <mxGeometry relative="1" as="geometry" />
        </mxCell>
        <mxCell id="0bEOkKY82hUJe_hc6dHf-1" value="" style="pointerEvents=1;verticalLabelPosition=bottom;shadow=0;dashed=0;align=center;html=1;verticalAlign=top;shape=mxgraph.electrical.resistors.resistor_2;strokeWidth=3;" vertex="1" parent="1">
          <mxGeometry x="200" y="230" width="100" height="20" as="geometry" />
        </mxCell>
        <mxCell id="0bEOkKY82hUJe_hc6dHf-20" style="edgeStyle=orthogonalEdgeStyle;rounded=0;orthogonalLoop=1;jettySize=auto;html=1;exitX=1;exitY=0.5;exitDx=0;exitDy=0;exitPerimeter=0;entryX=0;entryY=0.5;entryDx=0;entryDy=0;endArrow=none;endFill=0;strokeWidth=3;" edge="1" parent="1" source="0bEOkKY82hUJe_hc6dHf-2" target="0bEOkKY82hUJe_hc6dHf-12">
          <mxGeometry relative="1" as="geometry" />
        </mxCell>
        <mxCell id="0bEOkKY82hUJe_hc6dHf-2" value="" style="pointerEvents=1;verticalLabelPosition=bottom;shadow=0;dashed=0;align=center;html=1;verticalAlign=top;shape=mxgraph.electrical.resistors.resistor_2;strokeWidth=3;" vertex="1" parent="1">
          <mxGeometry x="400" y="230" width="100" height="20" as="geometry" />
        </mxCell>
        <mxCell id="0bEOkKY82hUJe_hc6dHf-19" style="edgeStyle=orthogonalEdgeStyle;rounded=0;orthogonalLoop=1;jettySize=auto;html=1;exitX=0;exitY=0.5;exitDx=0;exitDy=0;exitPerimeter=0;entryX=0.5;entryY=1;entryDx=0;entryDy=0;endArrow=none;endFill=0;strokeWidth=3;" edge="1" parent="1" source="0bEOkKY82hUJe_hc6dHf-3" target="0bEOkKY82hUJe_hc6dHf-11">
          <mxGeometry relative="1" as="geometry" />
        </mxCell>
        <mxCell id="0bEOkKY82hUJe_hc6dHf-22" style="edgeStyle=orthogonalEdgeStyle;rounded=0;orthogonalLoop=1;jettySize=auto;html=1;exitX=1;exitY=0.5;exitDx=0;exitDy=0;exitPerimeter=0;entryX=0.5;entryY=0;entryDx=0;entryDy=0;endArrow=none;endFill=0;strokeWidth=3;" edge="1" parent="1" source="0bEOkKY82hUJe_hc6dHf-3" target="0bEOkKY82hUJe_hc6dHf-13">
          <mxGeometry relative="1" as="geometry" />
        </mxCell>
        <mxCell id="0bEOkKY82hUJe_hc6dHf-3" value="" style="pointerEvents=1;verticalLabelPosition=bottom;shadow=0;dashed=0;align=center;html=1;verticalAlign=top;shape=mxgraph.electrical.resistors.resistor_2;rotation=90;strokeWidth=3;" vertex="1" parent="1">
          <mxGeometry x="310" y="320" width="100" height="20" as="geometry" />
        </mxCell>
        <mxCell id="0bEOkKY82hUJe_hc6dHf-15" style="edgeStyle=orthogonalEdgeStyle;rounded=0;orthogonalLoop=1;jettySize=auto;html=1;exitX=0.5;exitY=0;exitDx=0;exitDy=0;entryX=0.5;entryY=1;entryDx=0;entryDy=0;endArrow=none;endFill=0;strokeWidth=3;" edge="1" parent="1" source="0bEOkKY82hUJe_hc6dHf-5" target="0bEOkKY82hUJe_hc6dHf-10">
          <mxGeometry relative="1" as="geometry" />
        </mxCell>
        <mxCell id="0bEOkKY82hUJe_hc6dHf-24" style="edgeStyle=orthogonalEdgeStyle;rounded=0;orthogonalLoop=1;jettySize=auto;html=1;exitX=0.5;exitY=1;exitDx=0;exitDy=0;entryX=0;entryY=0.5;entryDx=0;entryDy=0;endArrow=none;endFill=0;strokeWidth=3;" edge="1" parent="1" source="0bEOkKY82hUJe_hc6dHf-5" target="0bEOkKY82hUJe_hc6dHf-13">
          <mxGeometry relative="1" as="geometry" />
        </mxCell>
        <mxCell id="0bEOkKY82hUJe_hc6dHf-5" value="&lt;font style=&quot;font-size: 24px;&quot;&gt;+&lt;br&gt;&lt;br&gt;-&lt;/font&gt;" style="ellipse;whiteSpace=wrap;html=1;aspect=fixed;strokeWidth=3;" vertex="1" parent="1">
          <mxGeometry x="125" y="280" width="80" height="80" as="geometry" />
        </mxCell>
        <mxCell id="0bEOkKY82hUJe_hc6dHf-16" style="edgeStyle=orthogonalEdgeStyle;rounded=0;orthogonalLoop=1;jettySize=auto;html=1;exitX=1;exitY=0.5;exitDx=0;exitDy=0;entryX=0;entryY=0.5;entryDx=0;entryDy=0;entryPerimeter=0;endArrow=none;endFill=0;strokeWidth=3;" edge="1" parent="1" source="0bEOkKY82hUJe_hc6dHf-10" target="0bEOkKY82hUJe_hc6dHf-1">
          <mxGeometry relative="1" as="geometry" />
        </mxCell>
        <mxCell id="0bEOkKY82hUJe_hc6dHf-10" value="" style="ellipse;whiteSpace=wrap;html=1;aspect=fixed;fillColor=#e51400;fontColor=#ffffff;strokeColor=#B20000;strokeWidth=3;" vertex="1" parent="1">
          <mxGeometry x="160" y="235" width="10" height="10" as="geometry" />
        </mxCell>
        <mxCell id="0bEOkKY82hUJe_hc6dHf-18" style="edgeStyle=orthogonalEdgeStyle;rounded=0;orthogonalLoop=1;jettySize=auto;html=1;exitX=1;exitY=0.5;exitDx=0;exitDy=0;entryX=0;entryY=0.5;entryDx=0;entryDy=0;entryPerimeter=0;endArrow=none;endFill=0;strokeWidth=3;" edge="1" parent="1" source="0bEOkKY82hUJe_hc6dHf-11" target="0bEOkKY82hUJe_hc6dHf-2">
          <mxGeometry relative="1" as="geometry" />
        </mxCell>
        <mxCell id="0bEOkKY82hUJe_hc6dHf-11" value="" style="ellipse;whiteSpace=wrap;html=1;aspect=fixed;fillColor=#e51400;fontColor=#ffffff;strokeColor=#B20000;strokeWidth=3;" vertex="1" parent="1">
          <mxGeometry x="355" y="235" width="10" height="10" as="geometry" />
        </mxCell>
        <mxCell id="0bEOkKY82hUJe_hc6dHf-35" style="edgeStyle=orthogonalEdgeStyle;rounded=0;orthogonalLoop=1;jettySize=auto;html=1;exitX=0.5;exitY=1;exitDx=0;exitDy=0;strokeWidth=3;endArrow=none;endFill=0;" edge="1" parent="1" source="0bEOkKY82hUJe_hc6dHf-12" target="0bEOkKY82hUJe_hc6dHf-34">
          <mxGeometry relative="1" as="geometry" />
        </mxCell>
        <mxCell id="0bEOkKY82hUJe_hc6dHf-12" value="" style="ellipse;whiteSpace=wrap;html=1;aspect=fixed;fillColor=#e51400;fontColor=#ffffff;strokeColor=#B20000;strokeWidth=3;" vertex="1" parent="1">
          <mxGeometry x="525" y="235" width="10" height="10" as="geometry" />
        </mxCell>
        <mxCell id="0bEOkKY82hUJe_hc6dHf-36" style="edgeStyle=orthogonalEdgeStyle;rounded=0;orthogonalLoop=1;jettySize=auto;html=1;exitX=1;exitY=0.5;exitDx=0;exitDy=0;entryX=1;entryY=0.5;entryDx=0;entryDy=0;entryPerimeter=0;strokeWidth=3;endArrow=none;endFill=0;" edge="1" parent="1" source="0bEOkKY82hUJe_hc6dHf-13" target="0bEOkKY82hUJe_hc6dHf-34">
          <mxGeometry relative="1" as="geometry" />
        </mxCell>
        <mxCell id="0bEOkKY82hUJe_hc6dHf-13" value="" style="ellipse;whiteSpace=wrap;html=1;aspect=fixed;fillColor=#e51400;fontColor=#ffffff;strokeColor=#B20000;strokeWidth=3;" vertex="1" parent="1">
          <mxGeometry x="355" y="430" width="10" height="10" as="geometry" />
        </mxCell>
        <mxCell id="0bEOkKY82hUJe_hc6dHf-25" value="&lt;font style=&quot;font-size: 24px;&quot;&gt;10 V&lt;/font&gt;" style="text;html=1;align=center;verticalAlign=middle;resizable=0;points=[];autosize=1;strokeColor=none;fillColor=none;" vertex="1" parent="1">
          <mxGeometry x="45" y="283" width="70" height="40" as="geometry" />
        </mxCell>
        <mxCell id="0bEOkKY82hUJe_hc6dHf-26" value="&lt;font style=&quot;font-size: 24px;&quot;&gt;`2 \Omega`&lt;/font&gt;" style="text;html=1;align=center;verticalAlign=middle;resizable=0;points=[];autosize=1;strokeColor=none;fillColor=none;" vertex="1" parent="1">
          <mxGeometry x="170" y="183" width="140" height="40" as="geometry" />
        </mxCell>
        <mxCell id="0bEOkKY82hUJe_hc6dHf-27" value="&lt;font style=&quot;font-size: 24px;&quot;&gt;`3 \Omega`&lt;/font&gt;" style="text;html=1;align=center;verticalAlign=middle;resizable=0;points=[];autosize=1;strokeColor=none;fillColor=none;" vertex="1" parent="1">
          <mxGeometry x="330" y="310" width="140" height="40" as="geometry" />
        </mxCell>
        <mxCell id="0bEOkKY82hUJe_hc6dHf-28" value="&lt;font style=&quot;font-size: 24px;&quot;&gt;`5 \Omega`&lt;/font&gt;" style="text;html=1;align=center;verticalAlign=middle;resizable=0;points=[];autosize=1;strokeColor=none;fillColor=none;" vertex="1" parent="1">
          <mxGeometry x="380" y="183" width="140" height="40" as="geometry" />
        </mxCell>
        <mxCell id="0bEOkKY82hUJe_hc6dHf-30" value="&lt;font style=&quot;font-size: 24px;&quot;&gt;`n_1`&lt;/font&gt;" style="text;html=1;align=center;verticalAlign=middle;resizable=0;points=[];autosize=1;fontColor=#FF0000;" vertex="1" parent="1">
          <mxGeometry x="110" y="195" width="80" height="40" as="geometry" />
        </mxCell>
        <mxCell id="0bEOkKY82hUJe_hc6dHf-31" value="&lt;font style=&quot;font-size: 24px;&quot;&gt;`n_2`&lt;/font&gt;" style="text;html=1;align=center;verticalAlign=middle;resizable=0;points=[];autosize=1;fontColor=#FF0000;" vertex="1" parent="1">
          <mxGeometry x="320" y="195" width="80" height="40" as="geometry" />
        </mxCell>
        <mxCell id="0bEOkKY82hUJe_hc6dHf-32" value="&lt;font style=&quot;font-size: 24px;&quot;&gt;`n_3`&lt;/font&gt;" style="text;html=1;align=center;verticalAlign=middle;resizable=0;points=[];autosize=1;fontColor=#FF0000;" vertex="1" parent="1">
          <mxGeometry x="490" y="195" width="80" height="40" as="geometry" />
        </mxCell>
        <mxCell id="0bEOkKY82hUJe_hc6dHf-33" value="&lt;font style=&quot;font-size: 24px;&quot;&gt;`GND`&lt;/font&gt;" style="text;html=1;align=center;verticalAlign=middle;resizable=0;points=[];autosize=1;fontColor=#FF0000;" vertex="1" parent="1">
          <mxGeometry x="315" y="440" width="90" height="40" as="geometry" />
        </mxCell>
        <mxCell id="0bEOkKY82hUJe_hc6dHf-34" value="" style="pointerEvents=1;verticalLabelPosition=bottom;shadow=0;dashed=0;align=center;html=1;verticalAlign=top;shape=mxgraph.electrical.signal_sources.source;aspect=fixed;points=[[0.5,0,0],[1,0.5,0],[0.5,1,0],[0,0.5,0]];elSignalType=dc1;strokeWidth=3;rotation=90;" vertex="1" parent="1">
          <mxGeometry x="500" y="300" width="60" height="60" as="geometry" />
        </mxCell>
        <mxCell id="0bEOkKY82hUJe_hc6dHf-37" value="&lt;font style=&quot;font-size: 24px;&quot;&gt;1 A&lt;/font&gt;" style="text;html=1;align=center;verticalAlign=middle;resizable=0;points=[];autosize=1;strokeColor=none;fillColor=none;" vertex="1" parent="1">
          <mxGeometry x="565" y="300" width="60" height="40" as="geometry" />
        </mxCell>
      </root>
    </mxGraphModel>
  </diagram>
</mxfile>
